<svg width="1001" height="746" viewBox="0 0 1001 746" fill="none" xmlns="http://www.w3.org/2000/svg">
<path d="M563.351 54.6398L538.084 19.5786V19.5786C519.193 -5.30623 481.804 -5.3953 462.795 19.3992L455.401 29.0433L462.169 19.5786L324.792 211.686L324.85 211.765L318.458 220.568L698.973 744.67H803.894C812.063 744.67 816.785 735.405 811.986 728.794L442.939 220.489L500.557 141.129L938.748 744.67L979.836 714.849C1002.19 698.627 1007.15 667.356 990.928 645.008L562.826 55.3632L563.351 54.6398Z" fill="black"/>
<path d="M262.523 297.452L262.581 297.531L267.1 291.306L327.533 374.543L266.425 462.482L266.794 463.103L223.699 522.459L385.032 744.67H260.494L161.43 608.225L62.3664 744.67L21.2781 714.849C-1.07333 698.627 -6.03968 667.356 10.1862 645.007L262.523 297.452Z" fill="black"/>
<path d="M340.731 564.253L471.72 744.67H596.258L403.391 479.026L340.731 564.253Z" fill="black"/>
<path d="M741.68 643.788L474.373 644.404L474.606 745.169L741.912 744.554L741.68 643.788Z" fill="black"/>
</svg>
